# xmcd CD database file generated by Grip 3.0.5
# 
# Track frame offsets:
#       150
#       12975
#       25784
#       39792
#       53509
#       64916
#       78082
#       88576
#       101123
#       116232
#       127984
#       139741
#       151407
#       162311
#       174370
#       184596
#       197547
#       207970
# 
# Disc length: 3003 seconds
# 
# Revision: 1
# Processed by: cddbd v1.4PL0 Copyright (c) Steve Scherf et al.
# Submitted via: Grip 3.0.5
# 
DISCID=e10bb912
DTITLE=Ray Charles - The Birth Of Soul (1954-1957)  (Disk 2)
DYEAR=1991
DGENRE=Blues
TTITLE0=I Got A Woman
TTITLE1=Greenbacks
TTITLE2=Come Back Baby
TTITLE3=A Fool For You
TTITLE4=This Little Girl Of Mine
TTITLE5=Hard Times
TTITLE6=A Bit Of Soul
TTITLE7=Mary Ann
TTITLE8=Drown In My Own Tears
TTITLE9=Hallelujah I Love Her So
TTITLE10=What Would I Do Without You
TTITLE11=Lonely Avenue
TTITLE12=I Want To Know
TTITLE13=Leave My Woman Alone
TTITLE14=It's Alright
TTITLE15=Ain't That Love
TTITLE16=Get On The Right Track
TTITLE17=Rockhouse  Parts 1 and 2
EXTD=
EXTT0=
EXTT1=
EXTT2=
EXTT3=
EXTT4=
EXTT5=
EXTT6=
EXTT7=
EXTT8=
EXTT9=
EXTT10=
EXTT11=
EXTT12=
EXTT13=
EXTT14=
EXTT15=
EXTT16=
EXTT17=
PLAYORDER=
